<?xml version="1.0" standalone="no"?>
<!DOCTYPE svg PUBLIC "-//W3C//DTD SVG 20010904//EN"
 "http://www.w3.org/TR/2001/REC-SVG-20010904/DTD/svg10.dtd">
<svg version="1.0" xmlns="http://www.w3.org/2000/svg"
 width="512.000000pt" height="512.000000pt" viewBox="0 0 512.000000 512.000000"
 preserveAspectRatio="xMidYMid meet">
<metadata>
Created by potrace 1.11, written by Peter Selinger 2001-2013
</metadata>
<g transform="translate(0.000000,512.000000) scale(0.100000,-0.100000)"
fill="#000000" stroke="none">
<path d="M2379 5056 c-2 -2 -38 -6 -79 -10 -41 -3 -86 -8 -100 -11 -14 -2 -54
-9 -90 -15 -36 -6 -92 -18 -125 -27 -33 -8 -69 -17 -80 -19 -42 -8 -190 -57
-199 -65 -6 -5 -16 -9 -23 -9 -13 0 -35 -9 -168 -68 -142 -64 -331 -177 -468
-281 -221 -167 -467 -438 -617 -680 -147 -238 -289 -602 -324 -832 -3 -20 -8
-42 -10 -50 -3 -8 -8 -34 -11 -59 -3 -25 -8 -74 -12 -110 -10 -84 -10 -446 0
-530 49 -416 197 -816 425 -1145 69 -99 55 -81 160 -205 416 -492 1000 -799
1647 -868 139 -14 520 -7 615 12 8 1 38 6 65 10 119 18 345 82 495 139 306
117 611 320 855 569 139 143 161 168 246 285 187 259 330 560 404 853 7 26 16
70 20 90 3 14 9 48 15 75 28 141 35 237 35 455 0 178 -5 274 -19 355 -3 17 -8
44 -10 60 -3 17 -10 55 -16 85 -6 30 -14 66 -16 80 -12 62 -71 245 -111 345
-259 647 -779 1161 -1423 1408 -173 66 -411 128 -549 143 -30 3 -64 8 -75 11
-23 6 -452 14 -457 9z"/>
</g>
</svg>
